<?xml version="1.0" standalone="no"?>
<!DOCTYPE svg PUBLIC "-//W3C//DTD SVG 20010904//EN"
 "http://www.w3.org/TR/2001/REC-SVG-20010904/DTD/svg10.dtd">
<svg version="1.0" xmlns="http://www.w3.org/2000/svg"
 width="183.000000pt" height="275.000000pt" viewBox="0 0 183.000000 275.000000"
 preserveAspectRatio="xMidYMid meet">

<g transform="translate(0.000000,275.000000) scale(0.100000,-0.100000)"
fill="#000000" stroke="none">
<path d="M1082 2580 c-12 -5 -30 -7 -40 -4 -12 4 -13 3 -4 -3 10 -7 7 -14 -10
-29 -18 -15 -20 -15 -9 -1 11 14 11 17 -1 17 -17 0 -43 -45 -47 -81 -1 -7 -12
-8 -31 -4 -24 5 -30 3 -30 -10 0 -9 5 -13 10 -10 6 3 10 -1 10 -10 0 -8 7 -18
15 -21 8 -4 13 -10 10 -14 -3 -4 2 -10 9 -13 8 -3 17 -1 19 6 2 7 4 -24 4 -68
-1 -44 -3 -73 -5 -64 -1 9 -14 19 -28 22 -19 3 -24 0 -24 -15 0 -14 -5 -18
-15 -14 -9 3 -15 0 -15 -7 0 -9 12 -12 40 -10 22 2 40 0 40 -3 0 -4 -19 -28
-42 -55 -24 -26 -49 -54 -56 -63 -7 -9 -18 -13 -24 -10 -7 4 -8 2 -4 -4 9 -15
49 -15 64 0 9 9 21 9 50 0 22 -7 51 -12 66 -12 14 0 26 -4 26 -8 0 -17 63 -11
77 6 12 16 13 15 6 -2 -4 -13 -2 -17 8 -14 26 9 15 33 -21 44 -34 11 -32 12
40 15 41 2 87 3 102 3 14 1 24 4 21 8 -2 5 2 8 9 8 8 0 30 17 49 37 l34 37
-38 -32 c-21 -18 -43 -32 -49 -32 -7 0 -3 7 8 15 14 11 15 15 4 14 -31 -3 -73
1 -68 7 3 3 28 8 55 12 32 5 48 12 48 22 1 8 6 14 13 12 7 -1 12 4 12 10 0 9
4 8 10 -2 9 -13 12 -13 21 3 6 9 14 15 20 12 5 -4 9 5 9 19 0 16 6 26 15 26 9
0 12 6 9 15 -3 8 2 22 12 32 16 17 17 16 11 -22 -5 -28 -4 -34 3 -20 13 31 12
95 -2 97 -7 1 -28 2 -47 2 -25 1 -37 8 -48 26 l-15 25 21 -24 c11 -13 21 -18
21 -13 0 6 -4 13 -10 17 -5 3 -6 13 -3 21 4 10 1 14 -8 13 -8 -2 -39 13 -69
33 -52 35 -150 69 -195 67 -11 0 -30 -4 -43 -9z m195 -56 c53 -25 98 -80 87
-108 -3 -8 -1 -17 5 -21 17 -10 14 -48 -3 -42 -8 3 -31 11 -52 18 -33 10 -43
20 -69 71 -16 33 -45 73 -65 90 l-35 29 40 -6 c22 -4 63 -18 92 -31z m-239
-23 c-7 -11 -16 -18 -20 -15 -4 3 -2 11 5 19 18 21 29 18 15 -4z m-37 -68
c-12 -20 -14 -14 -5 12 4 9 9 14 11 11 3 -2 0 -13 -6 -23z m469 -33 c0 -5 -4
-10 -10 -10 -5 0 -10 5 -10 10 0 6 5 10 10 10 6 0 10 -4 10 -10z m-339 -157
c13 -16 12 -17 -3 -4 -10 7 -18 15 -18 17 0 8 8 3 21 -13z m-11 -33 c0 -5 -2
-10 -4 -10 -3 0 -8 5 -11 10 -3 6 -1 10 4 10 6 0 11 -4 11 -10z m95 -21 c10
-15 -1 -23 -20 -15 -9 3 -13 10 -10 16 8 13 22 13 30 -1z"/>
<path d="M916 2514 c-8 -20 -8 -19 22 -28 19 -6 22 -4 22 18 0 19 -5 26 -19
26 -10 0 -22 -7 -25 -16z"/>
<path d="M953 2333 c-18 -7 -16 -23 2 -23 8 0 15 7 15 15 0 8 -1 15 -2 14 -2
0 -9 -3 -15 -6z"/>
<path d="M1551 2331 c-10 -7 -5 -11 18 -16 17 -3 34 -6 37 -5 4 1 11 -4 15
-12 7 -10 9 -9 9 4 0 29 -50 47 -79 29z"/>
<path d="M1386 2197 c3 -10 9 -15 12 -12 3 3 0 11 -7 18 -10 9 -11 8 -5 -6z"/>
<path d="M790 2074 c-6 -14 -10 -33 -11 -42 0 -11 -3 -12 -6 -4 -8 19 -23 14
-23 -8 0 -29 -14 -25 -27 8 -11 27 -11 26 -13 -13 l-1 -40 -17 33 c-14 28 -20
32 -42 27 -33 -9 -48 -24 -17 -18 26 5 35 -5 57 -61 9 -24 8 -25 -17 -13 -21
9 -27 9 -31 -1 -2 -7 -9 -9 -15 -5 -17 11 -37 13 -37 4 0 -4 9 -16 20 -26 21
-19 28 -41 8 -29 -15 9 -37 -22 -31 -45 3 -10 -1 -22 -8 -26 -8 -6 -10 -4 -4
5 6 9 4 11 -4 5 -7 -4 -11 -15 -8 -25 3 -13 0 -16 -13 -13 -12 3 -20 -2 -25
-16 -3 -12 -11 -19 -16 -16 -5 4 -9 0 -9 -7 0 -7 -9 1 -20 17 -21 32 -27 28
-10 -6 6 -11 8 -25 4 -31 -5 -8 -12 -2 -21 17 l-13 30 5 -35 5 -35 -13 30 -14
30 1 -42 c0 -24 5 -43 9 -43 10 0 68 41 88 63 9 9 21 17 27 17 6 0 19 10 29
23 10 13 21 24 26 25 4 1 36 20 72 43 43 27 65 47 65 60 0 14 6 18 25 17 20
-2 24 -6 19 -23 -3 -11 -13 -27 -23 -35 -9 -8 -20 -23 -24 -32 -8 -23 -27 -23
-27 -1 0 14 -4 12 -25 -7 -14 -13 -25 -29 -25 -37 0 -7 -4 -13 -8 -13 -5 0
-19 -22 -32 -49 -27 -58 -23 -83 20 -130 17 -18 29 -39 27 -45 -3 -7 8 -18 23
-24 41 -18 84 -85 76 -117 -4 -16 -11 -23 -18 -19 -7 4 -8 3 -4 -5 4 -6 11 -9
16 -6 12 8 40 -35 33 -52 -5 -11 -9 -11 -25 4 -14 13 -11 1 12 -36 18 -32 25
-49 14 -40 -9 7 -27 14 -40 14 -21 1 -22 0 -8 -27 23 -44 17 -43 -41 10 -92
84 -191 121 -246 92 -25 -14 -26 -60 -1 -59 10 0 12 3 5 6 -20 7 -15 31 6 38
62 19 231 -84 231 -142 0 -21 -2 -22 -21 -12 -21 11 -21 11 -3 -20 21 -36 45
-36 80 2 22 24 30 26 64 21 29 -5 40 -3 40 6 0 7 -8 10 -20 7 -24 -6 -26 5 -5
23 53 44 231 -41 272 -130 19 -42 30 -49 39 -25 22 57 -174 205 -272 205 -19
0 -34 5 -34 11 0 5 4 7 10 4 5 -3 7 0 4 8 -7 18 40 73 79 93 18 10 45 14 66
12 20 -3 47 -1 61 3 17 5 6 7 -38 8 -35 1 -72 -4 -84 -10 -11 -6 -22 -8 -25
-6 -3 3 9 13 26 21 22 12 59 16 137 16 89 0 105 2 95 14 -9 11 -5 15 20 20 17
3 36 3 42 -1 6 -3 7 -1 3 5 -4 7 -16 12 -27 12 -11 0 -36 8 -57 19 -62 31
-193 54 -219 38 -6 -4 -14 -3 -18 3 -3 5 -12 10 -18 10 -33 -1 31 -28 93 -39
89 -16 83 -30 -8 -20 -97 10 -153 28 -150 48 1 9 -3 26 -10 38 -11 19 -9 26 7
42 20 20 20 20 78 0 32 -11 58 -19 58 -19 0 1 13 -3 28 -9 58 -22 77 -24 77
-7 0 21 1 21 58 -13 27 -16 64 -32 83 -36 19 -3 42 -9 52 -11 9 -3 17 0 17 7
0 7 -3 10 -6 7 -10 -11 -134 38 -167 65 -18 15 -35 27 -39 27 -9 0 -68 60 -67
68 4 23 -4 31 -28 29 -19 -1 -30 5 -38 20 -7 13 -14 20 -17 17 -4 -3 -9 4 -13
15 -3 12 -11 21 -16 21 -6 0 -7 -6 -3 -12 5 -9 2 -9 -9 1 -20 16 -22 25 -4 16
6 -4 3 1 -7 9 -22 18 -36 21 -36 7 0 -5 -11 -11 -25 -13 -13 -3 -22 -1 -19 3
3 5 -1 9 -9 9 -7 0 -14 7 -14 15 0 17 11 19 36 5 14 -7 21 -4 32 16 11 21 11
27 -1 34 -8 5 -19 6 -25 3 -5 -3 1 4 14 17 17 17 25 19 31 10 5 -8 9 -4 12 12
4 24 -11 48 -32 48 -5 0 -10 4 -10 8 0 18 13 20 36 5 27 -17 24 -22 29 58 2
32 0 35 -21 31 -13 -2 -22 -7 -22 -11 1 -3 -4 -17 -11 -30 -16 -29 -31 -12
-26 31 4 35 -2 36 -15 2z m40 -124 c0 -5 -4 -10 -10 -10 -5 0 -10 5 -10 10 0
6 5 10 10 10 6 0 10 -4 10 -10z m-21 -84 c9 -11 6 -12 -15 -8 -19 3 -22 7 -12
13 16 11 14 11 27 -5z m-134 -143 c-2 -10 -4 -21 -4 -25 -1 -5 -8 -8 -16 -8
-12 0 -13 4 -3 25 13 29 28 34 23 8z m175 -3 c0 -5 -5 -10 -11 -10 -5 0 -7 5
-4 10 3 6 8 10 11 10 2 0 4 -4 4 -10z m-103 -45 c10 -5 21 -8 24 -7 4 1 15 -8
24 -18 10 -11 15 -20 12 -20 -4 0 -10 0 -14 0 -5 0 -8 5 -8 12 0 18 -47 20
-67 1 -14 -12 -21 -14 -30 -5 -9 9 -7 21 6 49 17 35 19 36 26 17 5 -12 17 -25
27 -29z m214 13 c89 -35 74 -52 -16 -20 -71 26 -94 42 -59 42 9 0 43 -10 75
-22z m-52 -34 c17 -4 31 -12 31 -20 0 -10 -7 -11 -32 -2 -63 21 -62 34 1 22z
m106 -39 l30 -15 -35 5 c-19 3 -40 6 -47 7 -15 2 -6 18 10 18 7 -1 26 -7 42
-15z m-288 -31 c-3 -3 -12 -4 -19 -1 -8 3 -5 6 6 6 11 1 17 -2 13 -5z m92 -69
c21 -14 46 -25 57 -25 10 -1 44 -7 74 -15 l55 -14 -60 2 c-33 2 -69 7 -80 12
l-20 8 20 -20 c11 -11 26 -18 34 -15 9 3 12 1 7 -6 -9 -15 -46 -16 -46 -2 0 6
-6 10 -14 10 -14 0 -106 48 -106 56 0 2 17 -3 38 -11 l37 -15 -25 20 c-14 11
-38 27 -55 35 l-30 16 39 -5 c21 -3 55 -17 75 -31z"/>
<path d="M546 2031 c-8 -12 64 -68 86 -68 12 0 4 12 -25 39 -44 40 -52 44 -61
29z"/>
<path d="M1035 2028 c-22 -72 -26 -90 -21 -95 3 -4 6 -2 6 3 0 5 7 30 15 57 8
26 12 47 9 47 -2 0 -6 -6 -9 -12z"/>
<path d="M1406 1925 c-9 -13 -16 -35 -16 -47 l1 -23 12 23 c12 22 13 21 13
-13 0 -19 -3 -30 -7 -24 -10 17 -20 -6 -12 -28 9 -26 -2 -14 -25 28 -13 24
-17 41 -11 50 13 21 11 29 -6 23 -8 -4 -15 -17 -15 -31 0 -23 -2 -24 -17 -12
-9 8 -5 -4 10 -28 30 -48 23 -57 -13 -18 -13 14 -28 25 -32 25 -9 0 24 -52 49
-78 7 -7 13 -20 13 -28 0 -12 -5 -11 -27 3 -27 18 -27 17 5 -24 38 -49 45 -51
74 -23 12 11 18 20 14 20 -4 0 0 10 8 21 11 16 12 26 4 39 -9 14 -5 24 17 53
26 32 30 34 41 19 10 -13 8 -18 -10 -27 -11 -6 -21 -17 -21 -25 0 -8 -3 -17
-7 -20 -4 -3 2 -25 13 -49 16 -36 22 -41 34 -31 8 6 18 9 22 7 5 -3 10 4 10
16 2 17 0 18 -7 7 -5 -8 -12 -11 -16 -8 -4 4 1 19 10 33 17 26 17 26 -5 15
-19 -10 -21 -10 -16 3 4 10 -2 17 -16 22 -21 6 -20 7 7 15 16 5 33 7 38 4 20
-13 4 21 -34 70 -37 48 -43 53 -54 38 -12 -15 -12 -14 -7 6 7 29 -1 28 -21 -3z"/>
<path d="M895 1869 c-6 -28 -3 -35 24 -56 56 -44 101 -90 94 -97 -3 -3 0 -6 8
-6 8 0 34 -18 59 -40 48 -44 106 -71 96 -45 -4 12 3 15 33 15 30 0 47 -8 77
-35 41 -36 74 -45 74 -20 0 10 10 15 30 15 47 0 35 17 -17 25 -26 4 -64 15
-85 26 -20 10 -49 19 -63 19 -16 0 -25 6 -25 16 0 9 -8 22 -17 29 -15 12 -16
16 -4 39 8 14 22 26 32 26 20 0 28 17 21 43 -4 16 -6 15 -23 -4 -25 -29 -24
-8 1 24 11 14 20 29 20 34 0 4 -5 0 -11 -10 -9 -15 -12 -16 -25 -2 -18 18 -34
20 -34 3 0 -6 -3 -8 -7 -5 -11 12 -43 -25 -43 -49 0 -13 6 -27 14 -31 9 -6 11
-15 5 -30 -12 -33 -29 -28 -30 7 -2 53 -4 55 -29 56 -43 2 -83 23 -76 40 4 11
-4 19 -29 30 -50 21 -63 18 -70 -17z m259 -225 c3 -8 2 -12 -4 -9 -6 3 -10 10
-10 16 0 14 7 11 14 -7z"/>
<path d="M419 1853 c-13 -16 -12 -17 4 -4 9 7 17 15 17 17 0 8 -8 3 -21 -13z"/>
<path d="M310 1850 c0 -5 4 -10 9 -10 6 0 13 5 16 10 3 6 -1 10 -9 10 -9 0
-16 -4 -16 -10z"/>
<path d="M248 1809 c-10 -6 -18 -15 -18 -21 0 -10 16 -8 51 6 10 4 24 0 34
-11 30 -30 52 -27 57 9 5 28 4 29 -8 13 -12 -16 -17 -17 -41 -5 -39 18 -55 20
-75 9z"/>
<path d="M1222 1768 c-14 -14 -16 -44 -4 -52 5 -3 22 -2 38 3 31 8 43 36 25
54 -8 8 -11 8 -11 -1 0 -7 -5 -12 -11 -12 -5 0 -7 5 -4 10 9 14 -19 12 -33 -2z"/>
<path d="M230 1724 c42 -18 70 -42 70 -61 0 -8 -4 -12 -9 -8 -9 5 -27 -33 -19
-40 2 -2 14 -2 26 2 14 3 22 13 22 27 0 33 -75 97 -112 96 -7 -1 3 -8 22 -16z"/>
<path d="M186 1704 c-9 -25 -7 -36 7 -31 6 2 27 -4 45 -14 40 -23 43 -10 2 14
-16 10 -30 25 -30 33 0 19 -16 18 -24 -2z"/>
<path d="M376 1686 c7 -19 -6 -21 -26 -3 -8 6 -12 8 -8 3 4 -5 3 -17 -2 -27
-8 -15 -7 -17 9 -14 21 4 65 25 59 29 -1 1 -11 8 -21 15 -15 12 -17 12 -11 -3z"/>
<path d="M1490 1673 c0 -1 8 -7 18 -12 13 -7 19 -6 19 2 0 7 -9 13 -19 13 -10
0 -18 -1 -18 -3z"/>
<path d="M185 1587 c-4 -15 -11 -25 -15 -22 -4 3 -10 -1 -13 -9 -7 -19 3 -56
15 -56 6 0 8 10 5 22 -4 15 0 30 13 43 13 14 16 25 10 35 -7 11 -10 8 -15 -13z"/>
<path d="M112 1570 c-6 -11 -12 -32 -12 -48 0 -29 24 -72 41 -72 12 0 12 33
-2 47 -5 5 -10 29 -11 52 0 22 -1 41 -2 41 -1 0 -7 -9 -14 -20z"/>
<path d="M950 1569 c0 -5 9 -9 20 -9 11 0 20 2 20 4 0 2 -9 6 -20 9 -11 3 -20
1 -20 -4z"/>
<path d="M1493 1543 c-7 -2 -13 -14 -13 -26 1 -22 1 -22 12 -2 6 11 16 23 22
27 12 9 -2 9 -21 1z"/>
<path d="M1392 1506 c-7 -16 -8 -26 -1 -26 12 0 22 25 17 41 -2 6 -9 0 -16
-15z"/>
<path d="M660 1477 c0 -2 15 -14 33 -27 20 -15 27 -17 18 -6 -13 16 -51 41
-51 33z"/>
<path d="M1298 1427 c-22 -65 -22 -67 -4 -67 8 0 22 25 34 60 19 55 19 60 4
60 -12 0 -23 -17 -34 -53z"/>
<path d="M731 1444 c13 -17 26 -30 28 -27 3 2 -8 16 -24 31 l-28 27 24 -31z"/>
<path d="M1577 1452 c3 -12 11 -23 19 -26 20 -8 17 8 -5 28 -19 17 -19 17 -14
-2z"/>
<path d="M1467 1416 c-3 -7 0 -19 6 -25 8 -8 8 -11 -1 -11 -7 0 -12 -5 -12
-11 0 -6 10 -9 23 -8 12 2 33 -1 47 -6 36 -12 71 -15 65 -5 -3 5 -12 7 -20 4
-8 -4 -17 1 -21 9 -3 9 -19 19 -35 22 -24 5 -29 11 -24 26 7 22 -20 27 -28 5z"/>
<path d="M1592 1381 c6 -11 20 -18 30 -16 10 2 22 -4 28 -13 5 -10 10 -12 10
-4 0 11 -56 52 -73 52 -4 0 -2 -9 5 -19z"/>
<path d="M1078 1383 c7 -3 16 -2 19 1 4 3 -2 6 -13 5 -11 0 -14 -3 -6 -6z"/>
<path d="M1245 1295 c-15 -30 -26 -56 -24 -58 10 -7 62 -27 63 -25 1 2 9 27
19 57 15 51 15 55 -1 67 -9 8 -19 14 -22 14 -3 0 -19 -25 -35 -55z"/>
<path d="M930 1290 c14 -4 34 -8 45 -8 l20 -1 -20 9 c-11 5 -31 8 -45 8 l-25
0 25 -8z"/>
<path d="M406 1245 c-4 -12 2 -15 27 -14 18 0 25 3 17 6 -8 3 -20 10 -26 15
-8 5 -14 3 -18 -7z"/>
<path d="M1470 1230 c0 -5 5 -10 11 -10 5 0 7 5 4 10 -3 6 -8 10 -11 10 -2 0
-4 -4 -4 -10z"/>
<path d="M1516 1213 c-3 -10 -19 -33 -36 -51 -39 -43 -39 -56 3 -48 32 6 67
37 67 60 0 6 -11 -2 -25 -19 l-25 -30 16 48 c9 26 14 50 11 53 -3 3 -8 -3 -11
-13z"/>
<path d="M400 1210 c-17 -10 -14 -15 17 -24 12 -4 24 -2 28 3 4 7 -1 8 -11 4
-13 -5 -16 -3 -11 10 7 19 -1 21 -23 7z"/>
<path d="M1446 1191 c-12 -13 -14 -21 -6 -26 13 -8 52 24 44 36 -8 14 -19 11
-38 -10z"/>
<path d="M807 1148 c-9 -33 -9 -38 5 -38 6 0 8 3 5 7 -4 3 -3 11 3 17 5 7 5
18 1 25 -6 9 -10 6 -14 -11z"/>
<path d="M378 1153 c7 -3 16 -2 19 1 4 3 -2 6 -13 5 -11 0 -14 -3 -6 -6z"/>
<path d="M628 1131 c9 -16 21 -29 27 -28 12 2 25 18 25 32 0 6 -4 4 -8 -3 -7
-9 -14 -8 -32 8 -31 27 -32 25 -12 -9z"/>
<path d="M354 1128 c-4 -5 0 -14 7 -19 11 -7 10 -9 -3 -9 -30 0 -9 -28 30 -41
21 -6 42 -16 49 -21 7 -6 18 -8 24 -6 7 2 -3 14 -22 26 l-34 22 35 1 35 1 -45
12 c-25 7 -44 18 -43 23 3 15 -25 25 -33 11z"/>
<path d="M587 1104 c7 -18 40 -37 47 -26 7 12 -7 28 -31 34 -16 4 -20 2 -16
-8z"/>
<path d="M794 1083 c-3 -10 -10 -28 -15 -41 -13 -32 -13 -32 25 -32 43 0 57
17 19 23 -25 4 -24 4 7 6 29 2 32 4 15 11 -17 7 -14 9 13 9 18 1 42 -4 53 -9
10 -6 19 -8 19 -6 0 12 -48 30 -80 29 -19 -1 -26 1 -15 4 39 10 40 23 2 23
-27 0 -39 -5 -43 -17z"/>
<path d="M325 1008 c-6 -61 -8 -232 -4 -313 3 -55 -22 -157 -60 -236 -26 -57
-29 -71 -20 -96 12 -37 52 -58 80 -43 30 17 24 49 -13 64 -26 11 -28 15 -12
18 11 2 19 11 19 23 0 16 6 19 26 17 19 -2 31 4 43 22 9 15 23 26 32 26 8 0
24 8 35 19 19 17 19 19 2 32 -16 13 -17 12 -4 -3 9 -12 10 -18 2 -18 -18 0
-25 31 -12 51 6 11 7 19 1 19 -13 0 -1 32 19 48 13 10 13 16 3 32 -8 14 -9 20
-1 20 6 0 9 7 5 15 -3 8 -2 15 2 15 5 0 17 7 28 16 18 15 18 15 -4 11 -19 -5
-22 -2 -20 21 2 20 -2 27 -22 32 l-25 7 25 6 c14 4 36 8 49 9 19 2 25 10 27
34 3 26 -1 33 -19 39 -21 8 -21 8 5 12 22 3 27 9 26 29 -1 13 -5 24 -8 24 -3
0 -20 14 -39 30 -18 17 -41 30 -50 30 -9 0 -36 11 -60 25 -23 14 -44 25 -46
25 -2 0 -6 -28 -10 -62z m48 -537 c-3 -13 -10 -18 -20 -14 -14 5 -13 8 3 20
23 17 23 17 17 -6z"/>
<path d="M528 1013 c7 -3 16 -2 19 1 4 3 -2 6 -13 5 -11 0 -14 -3 -6 -6z"/>
<path d="M772 995 c4 -4 21 -10 40 -15 18 -4 54 -15 81 -23 58 -19 61 -13 5
12 -42 19 -139 38 -126 26z"/>
<path d="M752 958 c-5 -13 -14 -50 -21 -83 -7 -33 -21 -87 -31 -120 -10 -33
-23 -98 -28 -144 -7 -60 -18 -100 -40 -142 l-31 -59 22 -15 c14 -9 42 -14 74
-12 44 2 50 4 40 17 -7 8 -16 18 -22 22 -5 4 1 8 15 9 14 0 19 3 12 6 -17 7
-5 23 18 23 10 0 40 20 66 45 43 41 45 45 22 45 -24 0 -48 16 -48 32 0 4 9 8
19 8 11 0 26 3 35 6 18 7 7 30 -33 71 -13 13 -20 27 -17 31 4 3 11 0 15 -7 6
-8 16 -11 30 -6 21 6 22 7 4 21 -16 12 -15 13 17 14 l35 1 -55 30 -55 30 48
-6 c38 -5 47 -3 47 9 0 9 8 16 18 16 13 1 11 6 -11 25 -28 25 -64 35 -51 14
10 -17 -30 6 -47 27 -13 16 -11 17 31 12 25 -3 54 -9 65 -13 19 -6 19 -6 3 8
-10 8 -18 19 -18 26 0 6 8 11 18 11 15 1 15 2 -2 11 -12 7 -21 8 -25 2 -3 -6
-19 -13 -36 -16 -16 -3 -42 -9 -57 -13 -18 -4 -28 -2 -28 5 0 6 15 11 33 11
24 0 28 3 17 10 -13 8 -12 10 5 11 11 1 26 2 34 2 20 -1 0 14 -42 32 -36 15
-38 15 -45 -7z m-57 -566 c-3 -3 -11 0 -18 7 -9 10 -8 11 6 5 10 -3 15 -9 12
-12z"/>
<path d="M921 926 c10 -9 79 -14 74 -5 -4 5 -22 9 -42 9 -20 0 -34 -2 -32 -4z"/>
<path d="M925 840 c3 -5 11 -10 16 -10 6 0 7 5 4 10 -3 6 -11 10 -16 10 -6 0
-7 -4 -4 -10z"/>
<path d="M490 684 c0 -8 5 -12 10 -9 6 4 8 11 5 16 -9 14 -15 11 -15 -7z"/>
<path d="M583 386 c-9 -11 -7 -19 13 -37 13 -13 32 -24 42 -25 11 -2 7 5 -13
22 l-30 24 35 -10 35 -9 -30 24 c-34 29 -36 29 -52 11z"/>
<path d="M555 323 c-4 -16 -10 -35 -15 -44 -7 -13 -4 -18 10 -22 14 -3 17 -1
13 11 -4 9 -2 13 4 9 18 -11 64 -16 58 -6 -4 5 -12 6 -18 3 -8 -5 -8 -3 1 7 9
10 15 10 24 1 7 -7 21 -12 33 -12 14 0 7 8 -25 26 -25 14 -49 32 -53 40 -13
22 -26 17 -32 -13z"/>
<path d="M700 342 c0 -13 27 -35 39 -30 5 1 -2 11 -15 21 -13 10 -24 14 -24 9z"/>
<path d="M485 181 c-12 -55 34 -95 93 -79 45 12 40 33 -14 60 -26 12 -49 28
-51 35 -9 22 -21 14 -28 -16z"/>
</g>
</svg>
